<svg id="Capa_1" enable-background="new 0 0 512 512" height="512" viewBox="0 0 512 512" width="512" xmlns="http://www.w3.org/2000/svg"><path d="m502 197.848h-44.68c-5.522 0-10 4.477-10 10v6.297h-237.095c-5.522 0-10 4.477-10 10v13.751h-10.418v-38.778c0-15.935-12.963-28.898-28.897-28.898h-96.23v-67.473c0-5.523-4.478-10-10-10h-44.68c-5.522 0-10 4.477-10 10v306.506c0 5.523 4.478 10 10 10h44.68c5.522 0 10-4.477 10-10v-28.76h382.64v28.76c0 5.523 4.478 10 10 10h44.68c5.522 0 10-4.477 10-10v-201.405c0-5.523-4.478-10-10-10zm-281.775 36.297h227.095v91.931h-227.095zm-59.316-43.925c4.906 0 8.897 3.992 8.897 8.898v38.778h-105.126v-47.676zm-116.229 209.033h-24.68v-286.506h24.68zm20-38.76v-102.597h135.545v78.18c0 5.523 4.478 10 10 10h237.095v14.417zm427.32 38.76h-24.68v-181.405h24.68z"/></svg>