<svg height="512pt" viewBox="0 0 512 512" width="512pt" xmlns="http://www.w3.org/2000/svg"><path d="m504.5 222c4.144531 0 7.5-3.359375 7.5-7.5v-49c0-4.140625-3.355469-7.5-7.5-7.5h-28.414062v-105.5c0-4.140625-3.359376-7.5-7.5-7.5h-20.097657v-37.5c0-4.140625-3.355469-7.5-7.5-7.5h-287.988281c-9.675781 0-9.675781 15 0 15h280.488281v29h-354.976562v-29h29.488281c9.675781 0 9.675781-15 0-15h-36.988281c-4.144531 0-7.5 3.359375-7.5 7.5v37.5h-20.097657c-4.140624 0-7.5 3.359375-7.5 7.5v105.5h-28.414062c-4.144531 0-7.5 3.359375-7.5 7.5v49c0 4.140625 3.355469 7.5 7.5 7.5h28.414062v90h-28.414062c-4.144531 0-7.5 3.359375-7.5 7.5v49c0 4.140625 3.355469 7.5 7.5 7.5h28.414062v65.714844c-.097656 0-.191406-.011719-.292968-.011719-19.378906 0-35.144532 15.769531-35.144532 35.148437 0 19.382813 15.765626 35.148438 35.144532 35.148438h441.230468c19.378907 0 35.148438-15.765625 35.148438-35.148438 0-19.378906-15.769531-35.148437-35.148438-35.148437-.257812 0-.511718.023437-.765624.03125v-65.734375h28.414062c4.144531 0 7.5-3.359375 7.5-7.5v-49c0-4.140625-3.355469-7.5-7.5-7.5h-28.414062v-90zm-7.5-15h-122v-34h122zm-36-49h-86v-34h86zm-324 0h-86v-34h86zm-122 15h122v34h-122zm122 139h-86v-34h86zm-122 15h122v34h-122zm.476562 149.851562c0-11.109374 9.039063-20.148437 20.144532-20.148437 3.167968 0 6.203125.71875 9.023437 2.132813 2.449219 1.230468 5.375 1.027343 7.632813-.535157 2.253906-1.558593 3.476562-4.226562 3.191406-6.953125-.078125-.714844-.117188-1.4375-.117188-2.144531 0-11.109375 9.039063-20.148437 20.148438-20.148437s20.148438 9.039062 20.148438 20.148437c0 .707031-.039063 1.425781-.117188 2.144531-.285156 2.726563.9375 5.394532 3.191406 6.953125 2.253906 1.5625 5.183594 1.765625 7.632813.535157 2.820312-1.414063 5.855469-2.132813 9.023437-2.132813 11.105469 0 20.144532 9.039063 20.144532 20.148437 0 11.109376-9.039063 20.148438-20.144532 20.148438h-79.757812c-11.105469 0-20.144532-9.039062-20.144532-20.148438zm179.023438 20.148438v-108h54v108zm302.5-20.148438c0 11.109376-9.039062 20.148438-20.148438 20.148438h-79.753906c-11.109375 0-20.144531-9.039062-20.144531-20.148438 0-11.109374 9.035156-20.148437 20.144531-20.148437 3.167969 0 6.203125.71875 9.019532 2.132813 2.453124 1.230468 5.378906 1.027343 7.636718-.535157 2.253906-1.558593 3.476563-4.226562 3.1875-6.953125-.074218-.722656-.113281-1.445312-.113281-2.144531 0-11.109375 9.039063-20.148437 20.148437-20.148437 11.109376 0 20.144532 9.039062 20.144532 20.148437 0 .707031-.035156 1.425781-.113282 2.144531-.285156 2.726563.9375 5.394532 3.191407 6.953125 2.253906 1.5625 5.183593 1.765625 7.632812.535157 2.820313-1.414063 5.855469-2.132813 9.019531-2.132813 11.109376 0 20.148438 9.039063 20.148438 20.148437zm0-115.851562h-122v-34h17c9.675781 0 9.675781-15 0-15h-17v-34h86v34h-22c-9.675781 0-9.675781 15 0 15h58zm-35.914062-98h-93.585938c-4.144531 0-7.5 3.359375-7.5 7.5v98c0 4.140625 3.355469 7.5 7.5 7.5h93.585938v47.660156c-6.300782-5.945312-14.785157-9.605468-24.109376-9.605468-16.957031 0-31.148437 12.066406-34.433593 28.066406-1.785157-.277344-3.601563-.417969-5.445313-.417969-19.378906 0-35.144531 15.769531-35.144531 35.148437 0 7.492188 2.363281 14.4375 6.371094 20.148438h-35.824219v-22c0-9.675781-15-9.675781-15 0v22h-54v-108h54v40c0 9.675781 15 9.675781 15 0v-47.5c0-4.140625-3.355469-7.5-7.5-7.5h-138c-4.144531 0-7.5 3.359375-7.5 7.5v115.5h-35.347656c4.007812-5.710938 6.371094-12.65625 6.371094-20.148438 0-19.378906-15.765626-35.148437-35.144532-35.148437-1.84375 0-3.660156.140625-5.445312.417969-3.289063-16-17.476563-28.066406-34.433594-28.066406-9.558594 0-18.242188 3.839843-24.585938 10.054687v-48.109375h93.585938c4.144531 0 7.5-3.359375 7.5-7.5v-98c0-4.140625-3.355469-7.5-7.5-7.5h-93.585938v-41h93.585938c4.144531 0 7.5-3.359375 7.5-7.5v-98c0-4.140625-3.355469-7.5-7.5-7.5h-93.585938v-49h410.171876v49h-93.585938c-4.144531 0-7.5 3.359375-7.5 7.5v98c0 4.140625 3.355469 7.5 7.5 7.5h93.585938zm0 0"/><path d="m233.5 109h-48c-4.144531 0-7.5 3.359375-7.5 7.5v48c0 4.140625 3.355469 7.5 7.5 7.5h48c4.144531 0 7.5-3.359375 7.5-7.5v-48c0-4.140625-3.355469-7.5-7.5-7.5zm-7.5 48h-33v-33h33zm0 0"/><path d="m323.5 109h-48c-4.144531 0-7.5 3.359375-7.5 7.5v48c0 4.140625 3.355469 7.5 7.5 7.5h48c4.144531 0 7.5-3.359375 7.5-7.5v-48c0-4.140625-3.355469-7.5-7.5-7.5zm-7.5 48h-33v-33h33zm0 0"/><path d="m233.5 263h-48c-4.144531 0-7.5 3.359375-7.5 7.5v48c0 4.140625 3.355469 7.5 7.5 7.5h48c4.144531 0 7.5-3.359375 7.5-7.5v-48c0-4.140625-3.355469-7.5-7.5-7.5zm-7.5 48h-33v-33h33zm0 0"/><path d="m323.5 263h-48c-4.144531 0-7.5 3.359375-7.5 7.5v48c0 4.140625 3.355469 7.5 7.5 7.5h48c4.144531 0 7.5-3.359375 7.5-7.5v-48c0-4.140625-3.355469-7.5-7.5-7.5zm-7.5 48h-33v-33h33zm0 0"/></svg>