<?xml version="1.0" encoding="iso-8859-1"?>
<!-- Generator: Adobe Illustrator 19.0.0, SVG Export Plug-In . SVG Version: 6.00 Build 0)  -->
<svg version="1.1" id="Capa_1" xmlns="http://www.w3.org/2000/svg" xmlns:xlink="http://www.w3.org/1999/xlink" x="0px" y="0px"
	 viewBox="0 0 512 512" style="enable-background:new 0 0 512 512;" xml:space="preserve">
<g>
	<g>
		<path d="M405.497,110.953c0.501-11.813,1.037-23.518,2.331-35.265c1.128-10.243,2.208-20.542,2.102-30.86
			c-0.091-8.876-0.748-18.856-5.369-26.693c-5.499-9.317-16.403-10.944-26.281-12.108c-14.906-1.757-29.855-3.14-44.83-4.16
			c-14.582-0.994-29.399-2.232-43.975-1.548c-12.452,0.584-24.977-0.538-37.461-0.28c-14.904,0.307-29.791,1.141-44.69,1.59
			c-13.605,0.41-27.214,0.842-40.775,2.048c-11.992,1.067-24.685,2.171-36.292,5.576c-9.352,2.744-17.66,8.014-21.56,17.277
			c-2.194,5.21-2.607,10.692-2.668,16.28c-0.099,8.984-0.013,17.976,0.118,26.959c0.484,33.269,2.452,66.483,3.539,99.733
			c2.217,67.855,1.994,135.75,2.012,203.631c0.006,27.593-1.021,54.834-4.065,82.253c-1.081,9.731-2.026,19.635-1.415,29.432
			c0.429,6.874,1.394,16.803,8.194,20.616c7.272,4.077,18.105,1.074,25.995,1.196c7.474,0.117,14.953,1.375,22.402,1.922
			c8.178,0.601,16.39,0.524,24.584,0.418c17.313-0.224,34.497-0.496,51.803,0.295c16.704,0.763,33.418,1.399,50.141,1.521
			c14.338,0.104,28.811-1.296,43.117-0.656c10.877,0.485,21.698,1.968,32.603,1.865c9.66-0.091,20.691-1.065,28.408-7.521
			c7.65-6.398,10.39-16.526,11.555-26.036c2.542-20.755-1.93-41.768-2.736-62.519c-1.31-33.739-1.442-67.508-1.353-101.269
			C401.108,246.73,402.619,178.813,405.497,110.953z M353.312,430.874c-1.075,22.643-1.822,45.298-3.091,67.931
			c-6.337-0.463-12.666-1.068-19.019-1.275c-13.904-0.454-27.936,0.851-41.868,0.771c-15.966-0.092-31.926-0.653-47.876-1.345
			c-15.806-0.686-31.491-0.774-47.309-0.441c-13.21,0.277-26.125-0.238-39.192-1.289c0.171-0.56,0.268-1.179,0.266-1.861
			c-0.248-90.475,1.542-180.956,1.303-271.438c-0.125-47.231-0.892-94.481-3.624-141.642c-0.399-6.892-1.36-13.946-1.055-20.857
			c0.186-4.198,1.108-6.906,5.165-8.605c8.149-3.412,18.422-3.011,27.066-3.834c4.322-0.411,8.646-0.797,12.972-1.166
			c4.28,0.309,8.579,0.517,12.945,0.535c11.393,0.047,22.775-0.088,34.164-0.386c21.675-0.565,43.35-1.922,65.031-2.101
			c10.587-0.087,21.173,0.123,31.749,0.62c3.275,0.154,6.548,0.186,9.824,0.297c3.016,0.103,8.245-0.361,10.858,1.484
			c4.378,3.092,3.579,13.388,3.731,18.026c0.292,8.901,1.166,17.77,1.609,26.667c2.207,44.269-0.232,88.593-2.346,132.815
			c-2.116,44.262-2.483,88.629-5.8,132.828C356.955,381.382,354.491,406.046,353.312,430.874z M397.017,53.413
			c-0.439,9.461-1.597,18.859-2.605,28.271c-2.989,27.899-2.862,56.399-3.764,84.431c-1.035,32.207-1.767,64.423-2.193,96.643
			c-0.425,32.094-0.61,64.197-0.367,96.294c0.202,26.594,0.145,53.393,2.965,79.861c1.071,10.05,2.093,20.154,1.85,30.274
			c-0.189,7.902-0.688,18.311-6.415,24.455c-5.693,6.109-16.495,5.831-24.203,5.732c2.28-43.867,3.528-87.671,7.319-131.463
			c3.987-46.058,4.126-92.338,6.22-138.496c2.074-45.727,4.716-91.551,2.436-137.324c-0.474-9.501-1.423-18.968-1.779-28.473
			c-0.248-6.631-0.02-15.302-3.908-21.054c-3.335-4.935-9.949-7.844-15.681-8.407c-1.458-0.144-2.928-0.248-4.4-0.338
			c-3.896-0.592-7.845-0.998-11.924-1.17c-11.116-0.47-22.245-0.162-33.361-0.606c-24.015-0.959-47.87-1.47-71.9-0.483
			c-23.847,0.979-47.937,2.492-71.604,5.666c-12.809,1.717-22.818,7.243-23.435,21.2c-0.319,7.233,0.853,14.645,1.266,21.859
			c0.701,12.242,1.269,24.492,1.728,36.746c0.92,24.568,1.401,49.152,1.631,73.736c0.461,49.211-0.094,98.424-0.2,147.635
			c-0.112,51.659-1.157,103.306-1.343,154.963c-0.001,0.323,0.026,0.627,0.066,0.923c-3.156-0.167-6.271-0.19-9.494-0.044
			c-2.273,0.104-4.546,0.222-6.822,0.264c-1.771,0.033-4.601-0.638-6.31-0.208c-0.151-0.197-0.293-0.4-0.342-0.654
			c-0.239-1.256-0.76-2.48-1.007-3.75c-0.814-4.181-0.793-8.549-0.729-12.792c0.304-20.358,4.038-40.559,4.796-60.923
			c1.183-31.763,0.333-63.642,0.201-95.42c-0.132-32.104-0.415-64.208-1.039-96.305c-0.623-32.006-1.54-64.012-2.973-95.992
			c-0.708-15.784-1.338-31.568-1.671-47.365c-0.159-7.538-0.262-15.077-0.3-22.616c-0.038-7.382-0.852-15.494,0.418-22.794
			c0.702-4.039,2.665-7.662,5.8-10.321c3.395-2.88,8.238-4.293,12.593-4.888c5.188-0.708,10.384-1.806,15.612-2.503
			c11.063-1.477,22.219-2.031,33.338-2.903c15.868-1.244,31.768-2.057,47.678-2.484c31.92-0.859,63.906-0.206,95.787,1.542
			c14.548,0.797,28.933,2.462,43.411,3.97c7.59,0.791,18.905,0.346,22.287,8.612C397.983,34.861,397.416,44.816,397.017,53.413z"/>
	</g>
</g>
<g>
	<g>
		<path d="M217.353,257.617c-4.116-6.856-12.021-8.309-19.357-8.951c-7.149-0.625-15.175-1.972-22.166,0.358
			c-4.597,1.533-7.301,4.808-7.991,8.679c-2.228,4.839-2.478,10.792-2.734,15.994c-0.363,7.369-1.02,18.526,3.923,24.774
			c4.476,5.657,13.485,5.019,19.935,5.473c7.313,0.515,15.52,0.933,21.732-3.649c6.929-5.112,7.593-13.926,8.581-21.799
			C220.134,271.657,221.085,263.836,217.353,257.617z M209.745,271.786c-0.248,5.77-0.005,16.051-4.661,20.178
			c-4.423,3.92-13.038,2.168-18.324,1.75c-2.72-0.215-6.611,0.116-9.188-1.047c-1.752-0.79-1.936-2.561-2.468-5.075
			c-1.03-4.861-0.95-9.897-0.729-14.839c0.159-3.56-0.011-8.019,1.62-11.273c0.402-0.804,0.943-1.495,1.577-2.104
			c2.354-1.019,5.544-0.955,8.416-0.897c5.551,0.11,12.242,0.029,17.578,1.535C209.516,261.69,209.982,266.275,209.745,271.786z"/>
	</g>
</g>
<g>
	<g>
		<path d="M318.734,87.201c-0.753-4.923-2.094-10.245-5.659-13.948c-3.617-3.756-8.591-4.869-13.603-5.274
			c-8.641-0.698-17.479-0.191-26.134-0.135c-5.071,0.033-10.131,0.072-15.184,0.155c-5.763-0.245-11.525-0.422-17.273-0.522
			c-8.854-0.155-17.588,0.576-26.403,1.232c-4.987,0.372-10.237,0.527-14.895,2.526c-10.889,4.675-11.331,17.742-11.124,28.008
			c0.22,10.97,3.951,21.096,15.069,24.943c7.606,2.631,16.54,2.695,24.495,3.188c8.938,0.554,17.896,0.716,26.849,0.825
			c15.422,0.188,31.669,4.487,46.948,1.221c12.302-2.629,18.486-12.138,18.675-24.297C320.587,99.152,319.634,93.09,318.734,87.201z
			 M302.292,118.894c-11.644,4.331-26.167,0.383-38.149-0.385c-14.52-0.931-29.079-0.278-43.602-1.569
			c-5.508-0.49-12.598-0.308-17.287-3.721c-3.568-2.598-4.555-7.065-4.88-11.231c-0.582-7.45-1.829-20.206,7.261-22.562
			c4.402-1.141,9.226-1.064,13.732-1.472c0.627-0.057,1.256-0.095,1.884-0.147c12.03,0.709,24.048,0.804,36.136,0.693
			c13.744-0.126,27.793-0.966,41.514-0.049c2.609,0.174,5.376,0.419,7.149,2.554c2.871,3.458,2.904,9.582,3.482,13.817
			C310.71,103.456,312.359,115.15,302.292,118.894z"/>
	</g>
</g>
<g>
	<g>
		<path d="M238.549,104.989c-2.887-0.776-5.862-0.183-8.83-0.118c0.352-0.257,0.706-0.508,1.048-0.798
			c3.949-3.354,6.537-8.812,4.033-13.802c-4.231-8.43-21.232-3.244-17.35,5.402c0.182,0.405,0.784,0.51,1.136,0.298
			c2.08-1.257,9.406-7.148,10.704-2.392c1.256,4.604-8.169,9.821-11.877,9.872c-2.079,0.029-3.263,3.221-1.136,4.194
			c3.806,1.738,7.885,2.604,12.052,2.874c3.76,0.243,8.222,0.648,11.107-2.167C240.519,107.295,240,105.38,238.549,104.989z"/>
	</g>
</g>
<g>
	<g>
		<path d="M266.372,89.282c-1.793-2.405-4.352-3.937-7.331-4.323c-7.403-0.96-13.832,6.986-15.008,13.8
			c-1.159,6.719,2.896,12.183,9.593,13.267C266.147,114.053,273.651,99.044,266.372,89.282z M260.539,104.153
			c-2.982,3.052-9.746,2.326-10.709-2.266c-1.252-5.97,7.541-15.616,11.838-8.073C263.406,96.866,263.027,101.607,260.539,104.153z"
			/>
	</g>
</g>
<g>
	<g>
		<path d="M292.954,95.406c-0.06-0.53-0.135-1.057-0.227-1.577c-0.713-4.091-6.769-2.303-6.177,1.703
			c0.72,4.862-1.821,6.386-5.414,5.639c1.663-4.249,3.804-8.401,4.356-12.922c0.261-2.141-2.639-2.33-3.629-0.982
			c-3.311,4.507-6.288,9.752-8.131,15.045c-0.438,1.257,0.267,3.153,1.517,3.729c3.338,1.535,7.159,2.69,10.704,1.823
			c-0.094,1.366-0.098,2.727,0.086,4.083c0.564,4.141,6.304,2.546,6.71-0.908C293.338,106.023,293.617,100.493,292.954,95.406z"/>
	</g>
</g>
<g>
	<g>
		<path d="M92.112,170.436c0.383-5.163,0.406-10.334,0.426-15.596c0.032-8.018,0.308-16.175-0.503-24.166
			c-2.049-20.199-15.866-20.789-32.791-20.822c-7.807-0.016-16.09,0.264-23.504,2.968c-11.732,4.28-14.172,14.269-13.942,25.713
			c0.336,16.761,0.362,33.609,0.27,50.37c-0.046,8.463-0.733,23.142,10.251,25.214c5.843,1.102,12.564,0.309,18.511,0.697
			c8.82,0.576,17.811,1.35,26.641,0.49c9.75-0.95,16.894-5.34,17.029-15.802C94.624,189.988,93.421,180.085,92.112,170.436z
			 M85.23,201.959c-0.97,3.403-4.629,3.816-7.76,4.175c-7.279,0.835-14.852,0.205-22.136-0.26
			c-6.302-0.402-12.574-0.979-18.892-0.857c-4.096,0.078-4.533-2.591-4.937-6.531c-0.5-4.884,0-9.878-0.172-14.78
			c-0.277-7.912-0.194-15.816-0.064-23.731c0.104-6.38,0.203-12.753,0.042-19.133c-0.114-4.535-0.801-10.183,1.425-14.357
			c5.164-9.681,25.05-6.835,33.955-6.402c3.906,0.19,9.49,0.004,12.525,2.972c2.491,2.436,1.925,4.583,1.598,7.58
			c-0.414,3.789-0.336,7.67-0.25,11.474c0.172,7.567,1.002,15.095,1.865,22.617c0.156,5.212,0.561,10.401,1.531,15.54
			c0.022,0.12,0.065,0.226,0.1,0.338c0.266,3.667,0.446,7.339,0.8,11.001C85.165,194.747,86.119,198.843,85.23,201.959z"/>
	</g>
</g>
<g>
	<g>
		<path d="M487.821,159.121c0.382-5.164,0.405-10.335,0.426-15.597c0.031-8.018,0.308-16.175-0.503-24.166
			c-2.049-20.199-15.867-20.788-32.792-20.821c-7.807-0.016-16.09,0.264-23.504,2.968c-11.732,4.28-14.171,14.269-13.942,25.713
			c0.336,16.761,0.362,33.609,0.27,50.37c-0.047,8.463-0.733,23.142,10.251,25.214c5.843,1.102,12.564,0.309,18.511,0.696
			c8.82,0.576,17.811,1.351,26.641,0.49c9.749-0.95,16.894-5.34,17.029-15.801C490.333,178.674,489.129,168.77,487.821,159.121z
			 M480.94,190.644c-0.97,3.403-4.629,3.816-7.76,4.175c-7.279,0.835-14.852,0.205-22.137-0.26
			c-6.302-0.402-12.574-0.979-18.892-0.857c-4.096,0.078-4.533-2.591-4.937-6.531c-0.5-4.884,0-9.878-0.172-14.781
			c-0.277-7.912-0.194-15.816-0.064-23.73c0.105-6.38,0.203-12.753,0.042-19.133c-0.114-4.535-0.801-10.183,1.426-14.357
			c5.163-9.681,25.049-6.836,33.954-6.402c3.027,0.147,6.188,0.049,9.1,1.018c2.987,0.993,5.777,3.813,5.474,7.053
			c-0.437,4.676-0.808,9.221-0.7,13.955c0.172,7.567,1.002,15.095,1.865,22.616c0.155,5.212,0.561,10.401,1.531,15.541
			c0.022,0.12,0.065,0.226,0.1,0.337c0.266,3.667,0.446,7.339,0.8,11.001C480.874,183.431,481.828,187.528,480.94,190.644z"/>
	</g>
</g>
<g>
</g>
<g>
</g>
<g>
</g>
<g>
</g>
<g>
</g>
<g>
</g>
<g>
</g>
<g>
</g>
<g>
</g>
<g>
</g>
<g>
</g>
<g>
</g>
<g>
</g>
<g>
</g>
<g>
</g>
</svg>
